<mxfile host="app.diagrams.net" modified="2021-09-21T00:26:59.249Z" agent="5.0 (Macintosh; Intel Mac OS X 10_15_7) AppleWebKit/537.36 (KHTML, like Gecko) Chrome/93.0.4577.82 Safari/537.36" etag="dMUlHAhuT9G9Sk2GcY0Z" version="15.2.9" type="github">
  <diagram id="eJUIVnzytq7Wtvgh5QX-" name="Page-1">
    <mxGraphModel dx="2037" dy="1453" grid="1" gridSize="10" guides="1" tooltips="1" connect="1" arrows="1" fold="1" page="1" pageScale="1" pageWidth="1169" pageHeight="1654" math="0" shadow="0">
      <root>
        <mxCell id="0" />
        <mxCell id="1" parent="0" />
        <mxCell id="8K6aNcbLh2UflF2O-nU--1" value="开始" style="rounded=1;whiteSpace=wrap;html=1;" vertex="1" parent="1">
          <mxGeometry x="200" y="30" width="90" height="40" as="geometry" />
        </mxCell>
        <mxCell id="8K6aNcbLh2UflF2O-nU--2" value="最小堆的指针H" style="shape=parallelogram;perimeter=parallelogramPerimeter;whiteSpace=wrap;html=1;fixedSize=1;" vertex="1" parent="1">
          <mxGeometry x="185" y="100" width="120" height="40" as="geometry" />
        </mxCell>
        <mxCell id="8K6aNcbLh2UflF2O-nU--3" value="int minvalue,lastvalue,child,parent;" style="rounded=0;whiteSpace=wrap;html=1;" vertex="1" parent="1">
          <mxGeometry x="147.5" y="160" width="195" height="50" as="geometry" />
        </mxCell>
        <mxCell id="8K6aNcbLh2UflF2O-nU--4" value="堆空？" style="rhombus;whiteSpace=wrap;html=1;" vertex="1" parent="1">
          <mxGeometry x="205" y="240" width="80" height="60" as="geometry" />
        </mxCell>
        <mxCell id="8K6aNcbLh2UflF2O-nU--5" value="printf(&quot;最小堆已满，无法删除元素&quot;)；&lt;br&gt;return -999;" style="rounded=0;whiteSpace=wrap;html=1;" vertex="1" parent="1">
          <mxGeometry x="355" y="320" width="230" height="60" as="geometry" />
        </mxCell>
        <mxCell id="8K6aNcbLh2UflF2O-nU--6" value="minvalue = H-&amp;gt;p[1];&lt;br&gt;lastvalue = H-&amp;gt;p[H-&amp;gt;size--];&lt;br&gt;parent = 1;" style="rounded=0;whiteSpace=wrap;html=1;" vertex="1" parent="1">
          <mxGeometry x="165" y="320" width="160" height="60" as="geometry" />
        </mxCell>
        <mxCell id="8K6aNcbLh2UflF2O-nU--7" value="2*parent &amp;lt;= H-&amp;gt;size" style="rhombus;whiteSpace=wrap;html=1;" vertex="1" parent="1">
          <mxGeometry x="182.5" y="420" width="125" height="70" as="geometry" />
        </mxCell>
        <mxCell id="8K6aNcbLh2UflF2O-nU--8" value="child = 2*parent;" style="rounded=0;whiteSpace=wrap;html=1;" vertex="1" parent="1">
          <mxGeometry x="185" y="530" width="120" height="40" as="geometry" />
        </mxCell>
        <mxCell id="8K6aNcbLh2UflF2O-nU--9" value="child != H-&amp;gt;size &amp;amp;&amp;amp; H-&amp;gt;p[child+1] &amp;lt; H-&amp;gt;p[child]" style="rhombus;whiteSpace=wrap;html=1;" vertex="1" parent="1">
          <mxGeometry x="95" y="590" width="300" height="70" as="geometry" />
        </mxCell>
        <mxCell id="8K6aNcbLh2UflF2O-nU--10" value="child++;" style="rounded=0;whiteSpace=wrap;html=1;" vertex="1" parent="1">
          <mxGeometry x="185" y="690" width="120" height="40" as="geometry" />
        </mxCell>
        <mxCell id="8K6aNcbLh2UflF2O-nU--11" value="lastvalue &amp;lt; H-&amp;gt;p[child]" style="rhombus;whiteSpace=wrap;html=1;" vertex="1" parent="1">
          <mxGeometry x="167.5" y="767" width="155" height="60" as="geometry" />
        </mxCell>
        <mxCell id="8K6aNcbLh2UflF2O-nU--13" value="H-&amp;gt;p[parent] = H-&amp;gt;p[child];" style="rounded=0;whiteSpace=wrap;html=1;" vertex="1" parent="1">
          <mxGeometry x="160" y="860" width="170" height="40" as="geometry" />
        </mxCell>
        <mxCell id="8K6aNcbLh2UflF2O-nU--14" value="H-&amp;gt;p[parent] = lastvalue;&lt;br&gt;return minvalue;" style="rounded=0;whiteSpace=wrap;html=1;" vertex="1" parent="1">
          <mxGeometry x="170" y="940" width="150" height="60" as="geometry" />
        </mxCell>
        <mxCell id="8K6aNcbLh2UflF2O-nU--15" value="" style="endArrow=classic;html=1;exitX=0.5;exitY=1;exitDx=0;exitDy=0;entryX=0.5;entryY=0;entryDx=0;entryDy=0;" edge="1" parent="1" source="8K6aNcbLh2UflF2O-nU--1" target="8K6aNcbLh2UflF2O-nU--2">
          <mxGeometry width="50" height="50" relative="1" as="geometry">
            <mxPoint x="340" y="160" as="sourcePoint" />
            <mxPoint x="390" y="110" as="targetPoint" />
          </mxGeometry>
        </mxCell>
        <mxCell id="8K6aNcbLh2UflF2O-nU--16" value="" style="endArrow=classic;html=1;exitX=0.5;exitY=1;exitDx=0;exitDy=0;entryX=0.5;entryY=0;entryDx=0;entryDy=0;" edge="1" parent="1" source="8K6aNcbLh2UflF2O-nU--2" target="8K6aNcbLh2UflF2O-nU--3">
          <mxGeometry width="50" height="50" relative="1" as="geometry">
            <mxPoint x="340" y="160" as="sourcePoint" />
            <mxPoint x="390" y="110" as="targetPoint" />
          </mxGeometry>
        </mxCell>
        <mxCell id="8K6aNcbLh2UflF2O-nU--17" value="" style="endArrow=classic;html=1;exitX=0.5;exitY=1;exitDx=0;exitDy=0;entryX=0.5;entryY=0;entryDx=0;entryDy=0;entryPerimeter=0;" edge="1" parent="1" source="8K6aNcbLh2UflF2O-nU--3" target="8K6aNcbLh2UflF2O-nU--4">
          <mxGeometry width="50" height="50" relative="1" as="geometry">
            <mxPoint x="340" y="160" as="sourcePoint" />
            <mxPoint x="390" y="110" as="targetPoint" />
          </mxGeometry>
        </mxCell>
        <mxCell id="8K6aNcbLh2UflF2O-nU--19" value="" style="endArrow=classic;html=1;exitX=0.5;exitY=1;exitDx=0;exitDy=0;entryX=0.5;entryY=0;entryDx=0;entryDy=0;" edge="1" parent="1" source="8K6aNcbLh2UflF2O-nU--4" target="8K6aNcbLh2UflF2O-nU--6">
          <mxGeometry width="50" height="50" relative="1" as="geometry">
            <mxPoint x="340" y="320" as="sourcePoint" />
            <mxPoint x="390" y="270" as="targetPoint" />
          </mxGeometry>
        </mxCell>
        <mxCell id="8K6aNcbLh2UflF2O-nU--20" value="" style="endArrow=classic;html=1;exitX=0.5;exitY=1;exitDx=0;exitDy=0;entryX=0.5;entryY=0;entryDx=0;entryDy=0;" edge="1" parent="1" source="8K6aNcbLh2UflF2O-nU--6" target="8K6aNcbLh2UflF2O-nU--7">
          <mxGeometry width="50" height="50" relative="1" as="geometry">
            <mxPoint x="340" y="320" as="sourcePoint" />
            <mxPoint x="390" y="270" as="targetPoint" />
          </mxGeometry>
        </mxCell>
        <mxCell id="8K6aNcbLh2UflF2O-nU--21" value="" style="endArrow=classic;html=1;exitX=0.5;exitY=1;exitDx=0;exitDy=0;entryX=0.5;entryY=0;entryDx=0;entryDy=0;" edge="1" parent="1" source="8K6aNcbLh2UflF2O-nU--7" target="8K6aNcbLh2UflF2O-nU--8">
          <mxGeometry width="50" height="50" relative="1" as="geometry">
            <mxPoint x="340" y="460" as="sourcePoint" />
            <mxPoint x="390" y="410" as="targetPoint" />
          </mxGeometry>
        </mxCell>
        <mxCell id="8K6aNcbLh2UflF2O-nU--22" value="" style="endArrow=classic;html=1;exitX=0.5;exitY=1;exitDx=0;exitDy=0;entryX=0.5;entryY=0;entryDx=0;entryDy=0;" edge="1" parent="1" source="8K6aNcbLh2UflF2O-nU--8" target="8K6aNcbLh2UflF2O-nU--9">
          <mxGeometry width="50" height="50" relative="1" as="geometry">
            <mxPoint x="340" y="510" as="sourcePoint" />
            <mxPoint x="390" y="460" as="targetPoint" />
          </mxGeometry>
        </mxCell>
        <mxCell id="8K6aNcbLh2UflF2O-nU--23" value="" style="endArrow=classic;html=1;exitX=0.5;exitY=1;exitDx=0;exitDy=0;entryX=0.5;entryY=0;entryDx=0;entryDy=0;" edge="1" parent="1" source="8K6aNcbLh2UflF2O-nU--9" target="8K6aNcbLh2UflF2O-nU--10">
          <mxGeometry width="50" height="50" relative="1" as="geometry">
            <mxPoint x="340" y="830" as="sourcePoint" />
            <mxPoint x="390" y="780" as="targetPoint" />
          </mxGeometry>
        </mxCell>
        <mxCell id="8K6aNcbLh2UflF2O-nU--25" value="" style="endArrow=classic;html=1;exitX=0.5;exitY=1;exitDx=0;exitDy=0;entryX=0.5;entryY=0;entryDx=0;entryDy=0;" edge="1" parent="1" source="8K6aNcbLh2UflF2O-nU--10" target="8K6aNcbLh2UflF2O-nU--11">
          <mxGeometry width="50" height="50" relative="1" as="geometry">
            <mxPoint x="340" y="830" as="sourcePoint" />
            <mxPoint x="390" y="780" as="targetPoint" />
          </mxGeometry>
        </mxCell>
        <mxCell id="8K6aNcbLh2UflF2O-nU--26" value="" style="endArrow=classic;html=1;exitX=0.5;exitY=1;exitDx=0;exitDy=0;" edge="1" parent="1" source="8K6aNcbLh2UflF2O-nU--11" target="8K6aNcbLh2UflF2O-nU--13">
          <mxGeometry width="50" height="50" relative="1" as="geometry">
            <mxPoint x="340" y="830" as="sourcePoint" />
            <mxPoint x="390" y="780" as="targetPoint" />
          </mxGeometry>
        </mxCell>
        <mxCell id="8K6aNcbLh2UflF2O-nU--27" value="" style="endArrow=classic;html=1;exitX=0.5;exitY=1;exitDx=0;exitDy=0;entryX=0.5;entryY=0;entryDx=0;entryDy=0;" edge="1" parent="1" source="8K6aNcbLh2UflF2O-nU--13" target="8K6aNcbLh2UflF2O-nU--14">
          <mxGeometry width="50" height="50" relative="1" as="geometry">
            <mxPoint x="340" y="830" as="sourcePoint" />
            <mxPoint x="390" y="780" as="targetPoint" />
          </mxGeometry>
        </mxCell>
        <mxCell id="8K6aNcbLh2UflF2O-nU--28" value="结束" style="rounded=1;whiteSpace=wrap;html=1;" vertex="1" parent="1">
          <mxGeometry x="197.5" y="1140" width="95" height="30" as="geometry" />
        </mxCell>
        <mxCell id="8K6aNcbLh2UflF2O-nU--30" value="" style="endArrow=classic;html=1;exitX=1;exitY=0.5;exitDx=0;exitDy=0;entryX=0.5;entryY=0;entryDx=0;entryDy=0;" edge="1" parent="1" source="8K6aNcbLh2UflF2O-nU--4" target="8K6aNcbLh2UflF2O-nU--5">
          <mxGeometry width="50" height="50" relative="1" as="geometry">
            <mxPoint x="340" y="420" as="sourcePoint" />
            <mxPoint x="390" y="370" as="targetPoint" />
            <Array as="points">
              <mxPoint x="470" y="270" />
            </Array>
          </mxGeometry>
        </mxCell>
        <mxCell id="8K6aNcbLh2UflF2O-nU--31" value="Yes" style="text;html=1;align=center;verticalAlign=middle;resizable=0;points=[];autosize=1;strokeColor=none;fillColor=none;" vertex="1" parent="1">
          <mxGeometry x="290" y="250" width="40" height="20" as="geometry" />
        </mxCell>
        <mxCell id="8K6aNcbLh2UflF2O-nU--32" value="No" style="text;html=1;align=center;verticalAlign=middle;resizable=0;points=[];autosize=1;strokeColor=none;fillColor=none;" vertex="1" parent="1">
          <mxGeometry x="255" y="300" width="30" height="20" as="geometry" />
        </mxCell>
        <mxCell id="8K6aNcbLh2UflF2O-nU--33" value="Yes" style="text;html=1;align=center;verticalAlign=middle;resizable=0;points=[];autosize=1;strokeColor=none;fillColor=none;" vertex="1" parent="1">
          <mxGeometry x="240" y="490" width="40" height="20" as="geometry" />
        </mxCell>
        <mxCell id="8K6aNcbLh2UflF2O-nU--34" value="" style="endArrow=classic;html=1;exitX=0;exitY=0.5;exitDx=0;exitDy=0;" edge="1" parent="1" source="8K6aNcbLh2UflF2O-nU--7">
          <mxGeometry width="50" height="50" relative="1" as="geometry">
            <mxPoint x="390" y="670" as="sourcePoint" />
            <mxPoint x="245" y="1030" as="targetPoint" />
            <Array as="points">
              <mxPoint x="80" y="455" />
              <mxPoint x="80" y="1030" />
            </Array>
          </mxGeometry>
        </mxCell>
        <mxCell id="8K6aNcbLh2UflF2O-nU--35" value="No" style="text;html=1;align=center;verticalAlign=middle;resizable=0;points=[];autosize=1;strokeColor=none;fillColor=none;" vertex="1" parent="1">
          <mxGeometry x="147.5" y="430" width="30" height="20" as="geometry" />
        </mxCell>
        <mxCell id="8K6aNcbLh2UflF2O-nU--36" value="Yes" style="text;html=1;align=center;verticalAlign=middle;resizable=0;points=[];autosize=1;strokeColor=none;fillColor=none;" vertex="1" parent="1">
          <mxGeometry x="240" y="660" width="40" height="20" as="geometry" />
        </mxCell>
        <mxCell id="8K6aNcbLh2UflF2O-nU--37" value="" style="endArrow=classic;html=1;exitX=1;exitY=0.5;exitDx=0;exitDy=0;" edge="1" parent="1" source="8K6aNcbLh2UflF2O-nU--9">
          <mxGeometry width="50" height="50" relative="1" as="geometry">
            <mxPoint x="400" y="620" as="sourcePoint" />
            <mxPoint x="240" y="750" as="targetPoint" />
            <Array as="points">
              <mxPoint x="460" y="625" />
              <mxPoint x="460" y="750" />
            </Array>
          </mxGeometry>
        </mxCell>
        <mxCell id="8K6aNcbLh2UflF2O-nU--38" value="No" style="text;html=1;align=center;verticalAlign=middle;resizable=0;points=[];autosize=1;strokeColor=none;fillColor=none;" vertex="1" parent="1">
          <mxGeometry x="395" y="600" width="30" height="20" as="geometry" />
        </mxCell>
        <mxCell id="8K6aNcbLh2UflF2O-nU--39" value="No" style="text;html=1;align=center;verticalAlign=middle;resizable=0;points=[];autosize=1;strokeColor=none;fillColor=none;" vertex="1" parent="1">
          <mxGeometry x="245" y="830" width="30" height="20" as="geometry" />
        </mxCell>
        <mxCell id="8K6aNcbLh2UflF2O-nU--40" value="" style="endArrow=classic;html=1;exitX=1;exitY=0.5;exitDx=0;exitDy=0;" edge="1" parent="1" source="8K6aNcbLh2UflF2O-nU--11">
          <mxGeometry width="50" height="50" relative="1" as="geometry">
            <mxPoint x="330" y="720" as="sourcePoint" />
            <mxPoint x="245" y="920" as="targetPoint" />
            <Array as="points">
              <mxPoint x="380" y="797" />
              <mxPoint x="380" y="920" />
            </Array>
          </mxGeometry>
        </mxCell>
        <mxCell id="8K6aNcbLh2UflF2O-nU--42" value="Yes" style="text;html=1;align=center;verticalAlign=middle;resizable=0;points=[];autosize=1;strokeColor=none;fillColor=none;" vertex="1" parent="1">
          <mxGeometry x="310" y="780" width="40" height="20" as="geometry" />
        </mxCell>
        <mxCell id="8K6aNcbLh2UflF2O-nU--43" value="return minvalue;" style="rounded=0;whiteSpace=wrap;html=1;" vertex="1" parent="1">
          <mxGeometry x="185.5" y="1060" width="120" height="40" as="geometry" />
        </mxCell>
        <mxCell id="8K6aNcbLh2UflF2O-nU--44" value="" style="endArrow=classic;html=1;exitX=0.5;exitY=1;exitDx=0;exitDy=0;entryX=0.5;entryY=0;entryDx=0;entryDy=0;" edge="1" parent="1" source="8K6aNcbLh2UflF2O-nU--14" target="8K6aNcbLh2UflF2O-nU--43">
          <mxGeometry width="50" height="50" relative="1" as="geometry">
            <mxPoint x="320" y="1020" as="sourcePoint" />
            <mxPoint x="370" y="970" as="targetPoint" />
          </mxGeometry>
        </mxCell>
        <mxCell id="8K6aNcbLh2UflF2O-nU--45" value="" style="endArrow=classic;html=1;exitX=0.5;exitY=1;exitDx=0;exitDy=0;entryX=0.5;entryY=0;entryDx=0;entryDy=0;" edge="1" parent="1" source="8K6aNcbLh2UflF2O-nU--43" target="8K6aNcbLh2UflF2O-nU--28">
          <mxGeometry width="50" height="50" relative="1" as="geometry">
            <mxPoint x="320" y="1020" as="sourcePoint" />
            <mxPoint x="370" y="970" as="targetPoint" />
          </mxGeometry>
        </mxCell>
      </root>
    </mxGraphModel>
  </diagram>
</mxfile>
